{"asset":{"version":"2.0","generator":"BYGA hybrid office kit"},"scene":0,"scenes":[{"nodes":[0]}],"nodes":[{"name":"root","children":[1,2,3,4,5,6,7,8,9,10,11,12,13,14]},{"name":"seat","mesh":0,"translation":[0,0.58,0],"scale":[0.62,0.12,0.58]},{"name":"back","mesh":0,"translation":[0,1,-0.27],"scale":[0.58,0.76,0.11],"rotation":[-0.06,0,0,0.9982]},{"name":"headrest","mesh":0,"translation":[0,1.47,-0.31],"scale":[0.42,0.18,0.1]},{"name":"stem","mesh":1,"translation":[0,0.34,0],"scale":[0.06,0.42,0.06]},{"name":"base-x","mesh":1,"translation":[0,0.13,0],"scale":[0.95,0.055,0.065]},{"name":"base-z","mesh":1,"translation":[0,0.13,0],"scale":[0.065,0.055,0.95]},{"name":"arm-l-support","mesh":1,"translation":[-0.35,0.72,-0.02],"scale":[0.05,0.34,0.05]},{"name":"arm-r-support","mesh":1,"translation":[0.35,0.72,-0.02],"scale":[0.05,0.34,0.05]},{"name":"arm-l","mesh":2,"translation":[-0.35,0.9,-0.03],"scale":[0.1,0.06,0.38]},{"name":"arm-r","mesh":2,"translation":[0.35,0.9,-0.03],"scale":[0.1,0.06,0.38]},{"name":"caster","mesh":2,"translation":[-0.43,0.065,-0.43],"scale":[0.1,0.09,0.1]},{"name":"caster","mesh":2,"translation":[0.43,0.065,-0.43],"scale":[0.1,0.09,0.1]},{"name":"caster","mesh":2,"translation":[-0.43,0.065,0.43],"scale":[0.1,0.09,0.1]},{"name":"caster","mesh":2,"translation":[0.43,0.065,0.43],"scale":[0.1,0.09,0.1]}],"meshes":[{"name":"charcoal-leather","primitives":[{"attributes":{"POSITION":0,"NORMAL":1},"indices":2,"material":0}]},{"name":"gunmetal","primitives":[{"attributes":{"POSITION":0,"NORMAL":1},"indices":2,"material":1}]},{"name":"soft-black","primitives":[{"attributes":{"POSITION":0,"NORMAL":1},"indices":2,"material":2}]}],"materials":[{"name":"charcoal-leather","pbrMetallicRoughness":{"baseColorFactor":[0.12,0.15,0.16,1],"metallicFactor":0,"roughnessFactor":0.48}},{"name":"gunmetal","pbrMetallicRoughness":{"baseColorFactor":[0.22,0.24,0.25,1],"metallicFactor":0.82,"roughnessFactor":0.28}},{"name":"soft-black","pbrMetallicRoughness":{"baseColorFactor":[0.07,0.08,0.085,1],"metallicFactor":0,"roughnessFactor":0.62}}],"accessors":[{"bufferView":0,"componentType":5126,"count":24,"type":"VEC3","max":[0.5,0.5,0.5],"min":[-0.5,-0.5,-0.5]},{"bufferView":1,"componentType":5126,"count":24,"type":"VEC3"},{"bufferView":2,"componentType":5123,"count":36,"type":"SCALAR","max":[23],"min":[0]}],"bufferViews":[{"buffer":0,"byteOffset":0,"byteLength":288,"target":34962},{"buffer":0,"byteOffset":288,"byteLength":288,"target":34962},{"buffer":0,"byteOffset":576,"byteLength":72,"target":34963}],"buffers":[{"byteLength":648,"uri":"data:application/octet-stream;base64,"}]}