{"asset":{"version":"2.0","generator":"BYGA hybrid office kit"},"scene":0,"scenes":[{"nodes":[0]}],"nodes":[{"name":"root","children":[1,2,3,4,5,6,7,8,9,10]},{"name":"base","mesh":0,"translation":[0,0.3,0],"scale":[2.05,0.24,0.72]},{"name":"back","mesh":0,"translation":[0,0.7,-0.3],"scale":[2.05,0.62,0.18]},{"name":"cushion-l","mesh":1,"translation":[-0.5,0.53,0.03],"scale":[0.92,0.16,0.58]},{"name":"cushion-r","mesh":1,"translation":[0.5,0.53,0.03],"scale":[0.92,0.16,0.58]},{"name":"arm-l","mesh":0,"translation":[-1.02,0.47,0],"scale":[0.18,0.46,0.72]},{"name":"arm-r","mesh":0,"translation":[1.02,0.47,0],"scale":[0.18,0.46,0.72]},{"name":"leg","mesh":2,"translation":[-0.87,0.09,-0.24],"scale":[0.07,0.18,0.07]},{"name":"leg","mesh":2,"translation":[0.87,0.09,-0.24],"scale":[0.07,0.18,0.07]},{"name":"leg","mesh":2,"translation":[-0.87,0.09,0.24],"scale":[0.07,0.18,0.07]},{"name":"leg","mesh":2,"translation":[0.87,0.09,0.24],"scale":[0.07,0.18,0.07]}],"meshes":[{"name":"emerald-fabric","primitives":[{"attributes":{"POSITION":0,"NORMAL":1},"indices":2,"material":0}]},{"name":"emerald-cushion","primitives":[{"attributes":{"POSITION":0,"NORMAL":1},"indices":2,"material":1}]},{"name":"walnut-leg","primitives":[{"attributes":{"POSITION":0,"NORMAL":1},"indices":2,"material":2}]}],"materials":[{"name":"emerald-fabric","pbrMetallicRoughness":{"baseColorFactor":[0.12,0.3,0.26,1],"metallicFactor":0,"roughnessFactor":0.92}},{"name":"emerald-cushion","pbrMetallicRoughness":{"baseColorFactor":[0.18,0.39,0.34,1],"metallicFactor":0,"roughnessFactor":0.96}},{"name":"walnut-leg","pbrMetallicRoughness":{"baseColorFactor":[0.25,0.15,0.09,1],"metallicFactor":0,"roughnessFactor":0.56}}],"accessors":[{"bufferView":0,"componentType":5126,"count":24,"type":"VEC3","max":[0.5,0.5,0.5],"min":[-0.5,-0.5,-0.5]},{"bufferView":1,"componentType":5126,"count":24,"type":"VEC3"},{"bufferView":2,"componentType":5123,"count":36,"type":"SCALAR","max":[23],"min":[0]}],"bufferViews":[{"buffer":0,"byteOffset":0,"byteLength":288,"target":34962},{"buffer":0,"byteOffset":288,"byteLength":288,"target":34962},{"buffer":0,"byteOffset":576,"byteLength":72,"target":34963}],"buffers":[{"byteLength":648,"uri":"data:application/octet-stream;base64,"}]}